<?xml version="1.0" encoding="UTF-8" standalone="no"?>
<!-- Created with Inkscape (http://www.inkscape.org/) -->

<svg
   xmlns:svg="http://www.w3.org/2000/svg"
   xmlns="http://www.w3.org/2000/svg"
   version="1.1"
   width="585"
   height="786.25"
   viewBox="0 0 585 786.25"
   id="svg6605"
   xml:space="preserve"><defs
     id="defs6609" /><g
     transform="matrix(1.25,0,0,-1.25,0,786.25)"
     id="g6613"><g
       transform="scale(0.1,0.1)"
       id="g6615"><path
         d="m 3033.02,6230.02 c -16.23,-16.23 -46.08,-31.02 -65.23,-32.32 -33.1,-2.24 -34.86,-4.78 -28.13,-40.69 4.04,-21.55 2.38,-47.73 -3.8,-59.85 -11.23,-22.03 2.87,-122.09 31.88,-226.22 13.67,-49.07 27.83,-167.37 16.76,-140.04 -11.32,27.94 -27.99,13.17 -20.26,-17.95 5.06,-20.35 3.39,-28.43 -4.83,-23.34 -6.91,4.28 -15.3,-3 -18.65,-16.16 -6.38,-25.14 -30.52,-28.2 -47.18,-5.99 -5.05,6.74 -8.98,-4.78 -8.98,-26.33 0,-39.5 -17.05,-62.69 -27.29,-37.1 -3.91,9.78 -6.67,7.78 -7.42,-5.39 -0.68,-11.97 -8.38,-20.94 -17.95,-20.94 -9.14,0 -19.75,-11.97 -23.34,-26.34 -3.6,-14.36 -10.39,-22.52 -14.96,-17.95 -4.53,4.53 -18.56,-0.7 -30.53,-11.37 -13.16,-11.75 -22.14,-14.17 -22.14,-5.99 0,7.18 -6.58,13.77 -13.76,13.77 -7.19,0 -10.33,-3.72 -6.59,-7.78 3.95,-4.28 1.53,-18.56 -5.39,-31.72 -9.42,-17.96 -14.96,-20.05 -22.14,-8.38 -7.36,11.97 -16.18,8.38 -38.22,-15.56 -44.07,-47.88 -76.58,-52.13 -91.64,-11.97 l -12.57,33.52 2.39,-41.9 c 1.85,-32.32 -2.67,-42.85 -19.75,-46.08 -17.92,-3.39 -20.63,0.6 -14.2,20.94 11.61,36.79 -0.34,29.93 -27.09,-15.55 -20.62,-35.05 -29.92,-40.53 -67.03,-39.5 -23.94,0.66 -43.09,6.25 -43.09,12.57 0,6.02 -9.57,3.1 -20.35,-6.2 -22.74,-19.63 -78.86,-36.43 -69.28,-20.74 3.51,5.75 1.54,12.21 -4.93,16.16 -5.74,3.51 -13.97,-1.79 -17.63,-11.37 -10.98,-28.71 -34.8,-20.35 -27.28,9.58 6.31,25.13 5.82,25.27 -10.74,2.99 -9.79,-13.17 -17.36,-26.99 -17.36,-31.72 0,-4.62 -7.78,-11.33 -17.36,-14.96 -10.77,-4.09 -15.27,-1.13 -11.87,7.78 8.21,21.54 -81.29,23.75 -97.32,2.39 -7.24,-9.63 -24.86,-19.61 -38.03,-21.54 -13.16,-1.93 -32.02,-9.69 -40.69,-16.76 -9.16,-7.46 -31.72,-16.79 -52.07,-21.54 -20.35,-4.75 -45.76,-10.98 -58.65,-14.37 -14.36,-3.77 -19.87,-1.35 -14.96,6.59 4.45,7.18 2.65,15.64 -4.19,19.75 -6.45,3.86 -11.97,0 -11.97,-8.38 0,-11.41 -3.19,-10.77 -11.97,2.39 -10.33,15.51 -15.07,14.36 -34.71,-8.38 -12.41,-14.36 -26.01,-23.06 -29.92,-19.15 -3.83,3.83 -15.56,0.2 -25.14,-7.78 -9.58,-7.98 -25.77,-12.17 -34.71,-8.97 -9.58,3.41 -22.4,0.34 -29.92,-7.19 -9.88,-9.87 -13.17,-9.57 -13.17,1.2 0,7.66 -8.38,14.36 -17.95,14.36 -9.58,0 -17.96,-5.86 -17.96,-12.57 0,-7.18 -4.61,-9.71 -10.77,-5.9 -14.36,8.88 -120.89,-19.14 -120.89,-31.8 0,-6.46 -4.07,-8.38 -10.17,-4.78 -5.69,3.34 -34.72,-1.41 -65.83,-10.78 -31.12,-9.37 -55.66,-13.06 -55.66,-8.38 0,4.79 -4.62,1.2 -10.77,-8.38 -9.43,-14.66 -13.17,-14.36 -29.93,2.4 -21.41,21.41 -55.06,15.56 -55.06,-9.57 0,-8.76 -8.38,-22.37 -19.14,-31.13 -15.57,-12.64 -21.18,-12.3 -29.93,1.8 -8.17,13.16 -10.77,13.6 -10.77,1.79 0,-8.37 -6.08,-11.96 -13.17,-7.77 -7.12,4.2 -23.34,-2.4 -35.31,-14.37 -11.97,-11.97 -29.29,-27.88 -37.7,-34.63 -17.95,-14.42 -69.42,-16.69 -69.42,-3.07 0,20.85 -20.74,8.38 -33.83,-20.35 -14.18,-31.12 -42.05,-42.05 -30.51,-11.97 3.67,9.58 1.3,17.96 -5.08,17.96 -6.39,0 -15.117,-8.38 -18.707,-17.96 -8.078,-21.54 -44.59,-23.39 -65.082,-3.29 -12.769,12.52 -18.676,11.07 -32.918,-8.08 -9.789,-13.17 -21.008,-19.69 -25.734,-14.96 -4.887,4.88 -2.391,14.36 5.984,22.74 23.59,23.59 15.563,34.7 -9.574,13.25 -13.164,-11.24 -23.937,-27.97 -23.937,-37.19 0,-14.05 -2.993,-14.34 -18.555,-1.79 -10.77,8.68 -17.547,10.44 -16.156,4.19 1.339,-6.04 -3.399,-23.94 -10.774,-40.7 -11.586,-26.33 -13.238,-27.05 -13.765,-5.99 -0.465,18.71 -4.786,15.57 -19.747,-14.36 -10.773,-21.54 -29.101,-41.44 -41.894,-45.48 -11.969,-3.78 -31.246,-15.69 -40.695,-25.14 -15.614,-15.61 -18.032,-14.36 -18.551,9.58 -0.574,26.33 -1.18,26.49 -13.949,3.59 -20.028,-35.91 -22.157,-37.03 -34.078,-17.96 -8.231,13.17 -11.223,13.81 -11.223,2.4 0,-8.38 -5.801,-11.97 -12.567,-7.78 -7.015,4.34 -15.742,-3.59 -19.75,-17.96 -4.007,-14.36 -13.793,-23.09 -22.144,-19.74 -8.254,3.3 -17.91,-1.8 -21.543,-11.37 -3.633,-9.58 -1.219,-17.36 5.387,-17.36 7.179,0 9.336,-4.31 5.382,-10.77 -3.617,-5.93 -17.355,-8.08 -30.519,-4.79 -18.238,4.56 -23.938,0 -23.938,-19.15 0,-17.96 -7.011,-25.14 -24.539,-25.14 -14.363,0 -21.468,-4.96 -17.136,-11.96 11.101,-17.96 -28.934,-73.74 -45.703,-63.68 -8.45,5.07 -7.461,0.24 2.394,-11.73 14.785,-17.96 14.434,-19.51 -2.992,-13.17 -13.164,4.79 -19.75,1 -19.75,-11.37 0,-10.77 -6.328,-25.08 -15.094,-34.11 -31.351,-32.32 -56.48,-80.2 -50.258,-95.76 3.801,-9.49 -8.855,-31.54 -29.203,-50.86 -20.347,-19.34 -33.316,-38.53 -29.926,-44.29 3.422,-5.82 0.602,-10.18 -6.582,-10.18 -6.558,0 -12.566,6.59 -12.566,13.77 0,7.18 -2.578,11.19 -5.387,8.38 -2.914,-2.92 -0.711,-25.74 4.785,-49.68 5.778,-25.13 5.516,-44.28 -0.597,-44.28 -6.461,0 -11.25,4.79 -11.969,11.97 -0.719,7.18 -1.812,16.27 -2.734,22.74 -3.762,26.33 -19.938,26.33 -21.485,0 -1.898,-32.23 -3.683,-40.7 -17.429,-82.59 -5.5,-16.75 -8.239,-32.03 -6.227,-34.71 2.008,-2.68 -2.992,-8.74 -11.371,-13.76 -8.379,-5.03 -11.277,-14.77 -6.586,-22.15 4.57,-7.18 13.547,-10.17 19.75,-6.58 6.035,3.49 10.246,-7.18 8.977,-22.74 -2.051,-25.14 -6.325,-27.81 -29.922,-18.74 -27.938,10.75 -33.391,3.78 -27.942,-35.72 4.457,-32.32 -12.133,-74.38 -25.9216,-65.72 -7.1797,4.51 -9.6289,2.28 -5.3867,-4.9 4.2461,-7.18 1.7968,-16.7 -5.3829,-20.95 -7.746,-4.57 -9.9648,-20.35 -5.3867,-38.3 7.0157,-27.53 5.668,-28.88 -13.7656,-13.77 -20.3477,15.83 -20.5977,15.57 -4.5195,-4.78 25.5429,-32.32 28.2148,-66.08 6.914,-87.38 -16.8984,-16.9 -16.9961,-21.54 -0.8398,-39.5 24.7773,-27.53 24.5742,-50.93 -0.3594,-41.34 -15.8242,6.09 -18.4844,3.04 -11.9687,-13.71 5.1211,-13.17 2.3281,-25.51 -7.1797,-31.72 -12.4492,-8.14 -11.9688,-10.18 2.3945,-10.18 14.3633,0 14.7188,-2.03 1.793,-10.17 -12.3125,-7.76 -12.9649,-16.16 -2.7539,-35.31 17.875,-33.52 17.1836,-54.18 -1.4336,-42.93 -9.5117,5.75 -8.8125,1.04 1.7929,-12.13 15.4297,-19.15 15.0977,-23.21 -2.9921,-36.47 -20.3477,-14.93 -28.2774,-61.47 -8.379,-49.18 6.1563,3.8 14.1094,-4.12 18.5547,-18.49 4.8164,-15.55 1.8516,-29.01 -7.7812,-35.3 -12.9649,-8.48 -12.3672,-13.77 3.5898,-31.72 12.4493,-14.01 16.0117,-29.92 10.1758,-45.49 -5.8359,-15.56 -2.0664,-30.22 10.7735,-41.89 11.9804,-10.89 20.4531,-38.9 21.5429,-71.22 1.1289,-33.51 8.6763,-57.03 20.3473,-63.43 10.602,-5.82 24.196,-20.95 31.719,-35.31 11.285,-21.55 10.43,-24.1 -5.984,-17.9 -27.254,10.29 -23.938,-11.39 4.789,-31.32 13.164,-9.14 20.707,-19.84 16.754,-23.79 -11.266,-11.27 13.168,-44.76 44.289,-60.7 17.953,-9.19 28.277,-24.59 27.527,-41.04 -0.652,-14.37 3.973,-26.33 10.176,-26.33 6.289,0 23.937,-9.9 39.5,-22.15 26.332,-20.73 26.902,-23.37 8.976,-41.29 -17.832,-17.83 -16.757,-20.13 15.559,-33.28 126.875,-51.62 133.891,-58.3 81.391,-77.46 l -31.121,-11.35 25.734,-32.32 c 23.004,-28.88 25.687,-46.68 25.285,-167.57 -0.406,-122.08 4.508,-231.59 10.742,-239.39 1.539,-1.92 5.375,-19.14 8.262,-37.1 2.883,-17.95 15.941,-44.07 28.125,-56.25 18.34,-18.34 20.656,-29.93 11.973,-59.85 -8.344,-28.73 -6.317,-42.38 8.976,-60.45 11.141,-13.16 26.793,-23.34 35.907,-23.34 9.574,0 12.484,-5.85 7.14,-14.36 -17.816,-28.37 -13.723,-42.3 17.399,-59.18 16.828,-9.13 36.992,-32.98 46.078,-54.53 9.09,-21.54 21.922,-41.87 29.328,-46.46 28.883,-17.9 -28.727,-99.9 -70.621,-100.51 -9.27,-0.14 -26.649,-12.82 -38.899,-28.38 -12.078,-15.34 -40.097,-35.47 -61.644,-44.28 -21.543,-8.82 -53.098,-28.68 -69.422,-43.69 -16.754,-15.42 -36.504,-28.06 -44.883,-28.73 -8.379,-0.67 -20.23,-2.51 -26.93,-4.19 -6.246,-1.56 -18.554,-3.85 -25.734,-4.78 -7.184,-0.94 -10.348,-5.24 -6.617,-8.98 9.808,-9.85 -76.571,-53.58 -89.738,-45.43 -5.223,3.23 -21.543,-2.51 -35.907,-12.62 -14.363,-10.12 -21.164,-18.56 -14.961,-18.56 6.121,0 4.188,-4.6 -4.191,-9.97 -48.1915,-30.88 -16.926,-169.57 56.574,-250.96 25.942,-28.72 46.742,-56.2 45.766,-60.44 -1,-4.32 7.512,-22.15 19.148,-40.1 13.696,-21.13 23.227,-64.63 27.531,-125.68 3.629,-51.46 12.079,-107.86 18.829,-125.68 16.25,-42.878 83.507,-81.386 142.156,-81.386 l 46.683,0 0,83.786 c 0,83.78 23.34,167.57 46.68,167.57 21.543,0 25.649,-20.28 7.18,-35.48 -10.098,-8.32 -17.953,-23.17 -17.953,-33.94 0,-36.1 68.226,-139.541 132.859,-201.436 35.906,-34.383 77.934,-78.117 94.559,-98.398 16.675,-20.348 34.425,-36.77 40.097,-37.102 5.508,-0.324 23.34,-11.023 38.899,-23.344 15.547,-12.304 52.066,-26.308 79.597,-30.519 27.528,-4.211 67.344,-18.488 86.778,-31.121 20.351,-13.227 42.131,-23.34 50.271,-23.34 8.02,0 43.69,-28.531 80.79,-64.633 56.26,-54.738 73.31,-64.637 111.31,-64.637 25.14,0 59.37,-3.683 77.8,-8.378 28.73,-7.309 32.92,-5.18 32.92,16.757 0,15.563 7.3,25.137 19.15,25.137 13.83,0 16.83,5.984 10.77,21.543 -13.03,33.516 -12.76,43.242 1.2,43.77 31.56,1.191 29.67,19.668 -6.18,60.363 -20.6,23.383 -47.21,64.637 -60.21,93.363 -26.56,58.649 -50.11,81.715 -105.97,103.797 -61.94,24.488 -61.96,58.984 -0.09,137.978 28.13,35.91 55.37,65.83 59.94,65.83 4.68,0 18.43,22.75 31.12,51.47 15.16,34.32 43.09,66.44 83.78,96.39 76.39,56.21 159.91,159.76 204.16,253.12 18.72,39.5 47.5,87.97 63.96,107.72 16.95,20.35 32.26,43.17 35.31,52.66 4.24,13.21 9.57,12.57 25.13,-2.99 10.9,-10.89 35.31,-22.97 54.46,-26.93 19.16,-3.96 49.74,-20.06 68.23,-35.9 17.95,-15.39 38.23,-25.68 43.69,-22.15 5.54,3.59 10.17,0.6 10.17,-6.58 0,-7.18 5.44,-9.9 11.97,-5.99 6.84,4.11 11.97,1.8 11.97,-5.38 0,-7.04 13.17,-18.63 29.92,-26.33 16.76,-7.71 30.15,-19.56 30.44,-26.94 0.8,-20.6 84.47,-78.99 113.19,-78.99 43.57,0 51.5,-22.75 45.92,-131.67 -4.85,-94.55 -2.52,-107.65 33.08,-185.52 21.34,-46.68 45.46,-88.02 54.46,-93.36 8.62,-5.11 16.16,-17.95 16.16,-27.532 0,-9.574 8.38,-21.023 17.95,-24.535 9.58,-3.512 17.96,-12.168 17.96,-18.555 0,-15.558 120.34,-165.175 132.86,-165.175 5.29,0 21.58,-20.348 36.42,-45.481 30.37,-51.469 205.98,-216 249.64,-233.894 37.05,-15.184 259.74,-122.778 299.24,-144.578 16.7,-9.219 52.66,-25.95 81.39,-37.868 52.66,-21.843 110.11,-77.527 110.11,-106.718 0,-40.696 85.3,-139.7231 104.14,-120.891 3.91,3.918 1.4,19.148 -5.53,33.512 -14.21,29.429 -25.06,74.211 -34.23,141.238 l -5.72,41.895 39.49,-43.688 c 21.65,-23.941 50.32,-61.273 63.44,-82.59 13.26,-21.543 36.76,-47.445 52.67,-58.051 l 28.72,-19.152 -5.98,56.258 c -5.61,52.664 -4.46,55.449 17.95,43.656 34.03,-17.91 47.14,3.024 26.62,42.524 -23,44.285 -22.62,62.328 0.91,42.765 27.63,-22.976 44.43,1.52 28.94,42.215 -19.59,51.469 -131.72,183.395 -159.4,187.543 -39.5,5.914 -39.5,33.891 0,33.891 45.48,0 52.49,8.25 36.59,43.089 -22.94,50.27 -198.29,98.036 -232.89,63.434 -38.08,-38.078 -111.31,38.305 -111.31,116.106 0,36.82 -38.11,135.25 -90.81,234.602 -31.06,58.54 -14.53,82.25 54.9,78.71 9.79,-0.5 32.91,3.16 50.87,8.06 20.34,5.55 32.91,4.18 32.91,-3.59 0,-7.04 19.75,-16.25 44.89,-20.95 25.13,-4.69 56.73,-21.01 71.81,-37.1 14.59,-15.56 38.73,-30.92 52.67,-33.51 14.36,-2.68 34.72,-12.988 46.08,-23.344 10.77,-9.824 29.08,-18.554 38.9,-18.554 10.77,0 24.57,-7.528 32.91,-17.953 7.77,-9.704 24.54,-17.954 36.51,-17.954 11.97,0 25.45,-5.5 29.32,-11.968 3.84,-6.383 19.75,-11.969 34.12,-11.969 14.5,0 48.47,-18.051 73.61,-39.113 63.43,-53.149 155.68,-88.356 179.54,-68.528 23.94,19.895 22.74,34.821 -3.59,44.785 -27.53,10.415 -49.44,40.114 -49.91,67.641 -0.29,17.238 5.02,19.988 26.57,13.766 14.75,-4.262 49.67,-13.27 77.2,-19.914 58.27,-14.067 94.52,-52.5 105.96,-112.348 7.32,-38.301 32.16,-60.574 53.23,-47.73 5.11,3.113 16.49,-2.539 24.4,-12.114 18.76,-22.742 47.42,-22.742 47.42,0 0,21.891 4.79,22.223 37.1,2.582 20.35,-12.371 25.74,-11.5 35.91,5.797 6.33,10.77 20.42,17.059 29.92,13.363 31.5,-12.25 19.38,53.665 -18.66,101.54 -19.71,24.8 -44.89,70.621 -57.22,104.132 -23.79,64.633 -56.5,89.773 -116.82,89.773 -44.29,0 -149.62,37.08 -149.62,52.66 0,5.91 16.76,7.26 37.11,3 20.34,-4.27 44.94,-7.78 54.46,-7.78 10.77,0 14.17,-5.68 8.97,-14.97 -6.44,-11.5 -4.79,-11.66 7.18,-0.67 26.77,24.58 86.18,17.03 156.8,-19.92 36.8,-19.25 108.32,-43.7 158.6,-54.21 90.96,-19.031 91.99,-18.957 157.39,11.37 35.91,16.65 65.83,38.13 65.83,47.27 0,8.94 8.38,23.47 17.96,31.13 10.01,8 17.95,30.52 17.95,50.87 0,35.63 1.2,36.33 50.27,29.32 32.32,-4.62 44.07,-3.12 32.92,4.19 -9.64,6.32 -31.72,11.37 -49.67,11.37 -31.12,0 -55.04,18.54 -41.68,32.32 3.81,3.93 35.69,13.95 70.4,22.14 34.71,8.19 52.6,15.5 39.5,16.16 -13.06,0.65 -41.89,-3.92 -63.44,-10.05 -57.74,-16.46 -47.87,16.66 15.56,52.18 25.14,14.08 27.65,17.86 8.38,12.6 -31.03,-8.46 -33.64,7.51 -13.76,84.11 22.91,88.31 19.51,104.14 -51.48,239.39 -20.73,39.5 -41.58,93.36 -46.33,119.69 -12.96,71.82 -78.05,244.97 -106.65,283.67 -15.03,20.35 -36.04,33.52 -53.48,33.52 -15.56,0 -31.75,4.94 -35.31,10.77 -3.53,5.77 -22.14,14.6 -40.1,19.02 -41.89,10.3 -137.77,56.56 -149.15,71.95 -6.19,8.38 -8.84,8.38 -8.84,0 0,-6.45 -4.7,-4.79 -10.18,3.59 -5.51,8.43 -23.34,18.03 -38.9,20.94 -16.08,3.02 -41.89,8.21 -58.65,11.8 -86.17,18.47 -153.31,29.35 -179.53,29.1 -58.66,-0.56 -87.5,8.9 -96.17,31.52 -5.04,13.17 -17.78,30.94 -28.31,39.5 -10.78,8.75 -19.16,22.89 -19.16,32.31 0,9.58 -3.84,16.76 -8.97,16.76 -4.94,0 -41.3,29.9 -80.8,66.43 -45.36,41.95 -113.71,87.03 -185.52,122.35 -140.04,68.86 -187.64,101.66 -233.26,160.73 -19.41,25.13 -49.31,61.59 -64.78,78.99 -15.7,17.67 -58.85,73.01 -95.19,122.09 -68.24,92.16 -164.15,191.51 -184.89,191.51 -6.48,0 -35.31,19.22 -62.84,41.89 -27.53,22.67 -55.81,41.89 -61.64,41.89 -5.92,0 -19.83,10.77 -30.9,23.94 -17.77,21.12 -34.93,27.11 -64.86,22.62 -4.3,-0.64 -10.1,3.71 -14.49,10.9 -8.62,14.1 -117.17,63.99 -198.56,91.26 -33.51,11.23 -65.11,24.3 -71.81,29.71 -18.98,15.32 -185.53,58.75 -251.36,65.55 -33.51,3.46 -67.74,8.9 -77.8,12.36 -65.83,22.63 -560.2,34.28 -604.45,14.24 -13.4,-6.07 -37.1,-11.81 -53.86,-13.03 -32.32,-2.37 -102.87,-15.73 -134.06,-25.39 -10.49,-3.25 -38.9,-8.37 -62.84,-11.32 -23.934,-2.96 -53.965,-10.77 -66.426,-17.3 -24.527,-12.85 -99.344,-15.17 -140.039,-4.35 -14.055,3.74 -42.551,31.22 -64.637,62.34 -22.086,31.12 -44.773,59.09 -51.464,63.44 -6.688,4.35 -11.973,73.01 -11.973,155.6 0,125.68 4.215,159.48 28.129,225.62 15.578,43.09 32.933,83.94 38.902,91.57 6.555,8.38 6.555,16.4 0,20.49 -14.844,9.28 -4.789,50.04 16.754,67.93 8.82,7.32 16.758,24.69 16.758,36.66 0,11.97 5.672,22.74 11.969,22.74 6.445,0 11.968,7.18 11.968,15.56 0,8.56 10.774,23.1 23.942,32.31 13.164,9.22 23.937,21.07 23.937,26.34 0,10.09 58.649,105.71 71.817,117.08 3.828,3.31 10.254,14.58 13.765,24.15 3.598,9.82 47.278,41.18 96.348,69.18 81.39,46.44 144.67,64.88 222.63,64.88 14.37,0 26.33,5.44 26.33,11.97 0,6.45 14.37,2.58 31.13,-8.38 16.75,-10.95 34.15,-17.03 37.7,-13.17 3.43,3.75 0,7.19 -7.18,7.19 -8,0 -13.77,7.78 -13.77,18.55 0,12.99 7.18,16.4 23.94,11.37 17.95,-5.39 22.15,-2.54 16.76,11.37 -5.56,14.36 1.19,18.56 29.92,18.56 20.35,0 37.11,5.4 37.11,11.96 0,6.41 15.56,11.97 33.51,11.97 47.88,0 122.09,22.56 122.09,37.11 0,15.05 58.65,11.14 81.39,-5.43 11.11,-8.09 14.53,-6.54 11.97,5.43 -2.05,9.57 5.38,15.99 17.35,14.96 11.97,-1.03 20.95,2.82 20.95,8.98 0,9.29 11.97,10.77 87.38,10.77 17.95,0 32.31,5.32 32.31,11.97 0,6.42 11.37,11.97 24.54,11.97 15.56,0 21.47,5.03 16.16,13.76 -6.18,10.16 4.78,11.73 41.89,5.99 27.53,-4.26 56.23,-4.18 63.44,0.18 17.4,10.54 75.4,19.57 125.68,19.57 21.54,0 39.49,4.62 39.49,10.17 0,5.55 14.97,7.45 32.92,4.19 17.95,-3.27 26.39,-2.86 18.55,0.88 -28.2,13.49 -15.56,26.11 21.55,21.52 20.35,-2.52 33.03,0.22 29.26,6.33 -10.21,16.54 64.1,34.47 116.76,28.17 33.52,-4 44.6,-1.34 42.13,10.13 -3.87,17.92 89.54,34.31 154.17,27.04 29.92,-3.36 39.87,0.93 45.48,19.64 3.95,13.17 17.69,23.94 30.52,23.94 13.17,0 23.34,4.43 23.34,10.17 0,5.7 13.17,8.71 29.93,6.85 33.51,-3.72 90.16,20.68 113.3,48.81 10.46,12.72 31.53,16.29 72.22,12.25 56.26,-5.58 84.69,7.11 79.84,35.63 -1.11,6.52 12.92,13.6 30.88,15.55 17.95,1.97 32.91,8.76 32.91,14.97 0,6.17 22.15,20.39 48.48,31.12 26.33,10.72 45.74,22.41 42.49,25.57 -7.9,7.7 22.74,38.46 38.3,38.46 6.77,0 15.03,11.97 19.01,27.53 7.01,27.46 77.94,80.19 107.87,80.19 9.57,0 21.86,6.15 26.33,13.17 5.58,8.78 0,10.61 -16.76,5.49 -35.04,-10.71 -33.51,2.95 3.59,32.07 16.76,13.15 27.29,27.7 23.94,33.06 -3.32,5.32 17.95,19.42 47.88,31.72 29.92,12.3 53.86,25.87 53.86,30.52 0,4.53 -20.35,-0.14 -44.29,-10.17 -41.89,-17.55 -43.34,-17.42 -26.93,2.39 9.77,11.78 34.12,28.02 55.66,37.11 31.12,13.12 37.29,21.54 32.91,44.88 -3.36,17.96 1.35,31.31 12.57,35.61 25.08,9.61 22.75,32.6 -2.39,23.59 -17.59,-6.31 -16.6,-2.35 5.39,21.6 14.29,15.55 26.93,37.18 26.93,46.07 0,9.39 11.85,29.93 26.93,46.69 19.39,21.54 20.56,25.06 4.19,12.56 -20.92,-15.96 -22.03,-14.96 -13.77,12.57 5.03,16.76 15.92,37.82 24.74,47.88 18.78,21.38 4.59,55.04 -19.35,45.9 -13.04,-4.98 -15.83,5.57 -12.57,47.46 3.26,41.89 0.6,52 -11.97,45.48 -8.81,-4.57 -7.18,-1.03 3.59,7.78 18.26,14.94 17.94,21.55 -4.19,87.38 -13.28,39.5 -36.2,84.54 -51.47,101.14 -15.41,16.76 -29.37,40.19 -31.72,53.26 -2.39,13.34 -14.96,28.73 -29.32,35.91 -14.36,7.18 -23.34,17.95 -20.95,25.13 2.37,7.09 -3.37,22.75 -13.16,35.91 -16.63,22.37 -17.38,22.15 -17.84,-5.38 -0.56,-33.26 -15.76,-23.94 -21.49,13.16 -6.47,41.9 -26.5,58.38 -53.43,43.95 -18.69,-10.01 -29.33,-7.96 -48.48,9.32 -23.94,21.6 -24.35,21.61 -16.76,0.6 4.76,-13.17 3.13,-18.75 -4.19,-14.37 -6.58,3.95 -11.97,17.96 -11.97,31.12 0,16.76 -6.28,22.32 -20.94,18.55 -11.35,-2.91 -34.11,-9.22 -49.67,-13.76 -19.16,-5.58 -25.97,-3.99 -20.44,4.79 14.78,23.47 -4.7,14.36 -35.82,-16.76"
         id="path6617"
         style="fill:#000000;fill-opacity:1;fill-rule:nonzero;stroke:none" /></g></g></svg>